<svg width="22" height="22" viewBox="0 0 22 22" fill="none" xmlns="http://www.w3.org/2000/svg">
<path fill-rule="evenodd" clip-rule="evenodd" d="M12.1082 19.6452L12.1845 19.7315C12.5149 20.062 13.0349 20.0874 13.3945 19.8078L13.4809 19.7315L19.8975 13.3148L19.9355 13.2746L19.986 13.2124L20.0517 13.1104L20.1007 13.0071L20.1332 12.9105L20.1597 12.7749L20.166 12.6667L20.1635 12.5977L20.1475 12.4827L20.1204 12.3805L20.0801 12.2787L20.0322 12.1894L19.9646 12.0933L19.8975 12.0185L13.4809 5.60182C13.1229 5.24384 12.5425 5.24384 12.1845 5.60182C11.8541 5.93226 11.8286 6.45222 12.1082 6.81183L12.1845 6.89818L17.0347 11.75L2.74935 11.75C2.24309 11.75 1.83268 12.1604 1.83268 12.6667C1.83268 13.1729 2.24309 13.5833 2.74935 13.5833L17.0365 13.5833L12.1845 18.4352C11.8541 18.7656 11.8286 19.2856 12.1082 19.6452L12.1845 19.7315L12.1082 19.6452Z" fill="#477EF4"/>
</svg>
