<svg width="18" height="14" viewBox="0 0 18 14" fill="none" xmlns="http://www.w3.org/2000/svg">
<path fill-rule="evenodd" clip-rule="evenodd" d="M6.91602 0.746683L8.99935 1.60793L11.0827 0.746683C12.4201 0.193814 13.912 0.193814 15.2493 0.746683L16.8088 1.39137C17.1252 1.52217 17.3327 1.83885 17.3327 2.19102V12.3933C17.3327 12.8689 16.9596 13.2545 16.4993 13.2545C16.3933 13.2545 16.2883 13.2336 16.1899 13.1929L15.2493 12.8041C13.912 12.2512 12.4201 12.2512 11.0827 12.8041L8.99935 13.6654L6.91602 12.8041C5.57864 12.2512 4.08673 12.2512 2.74935 12.8041L1.80884 13.1929C1.38152 13.3696 0.896546 13.1548 0.725618 12.7131C0.686245 12.6114 0.666016 12.5028 0.666016 12.3933V2.19102C0.666016 1.83885 0.873475 1.52217 1.18986 1.39137L2.74935 0.746683C4.08673 0.193814 5.57864 0.193814 6.91602 0.746683ZM3.38608 2.28693L2.33268 2.7224V11.1771C4.02053 10.5437 5.88062 10.5726 7.55275 11.2639L8.16602 11.517V3.06703L6.27928 2.28693C5.34966 1.90262 4.31571 1.90262 3.38608 2.28693ZM11.7194 2.28693L9.83268 3.0662V11.517L10.4459 11.2639C12.1181 10.5726 13.9782 10.5437 15.666 11.1771V2.7224L14.6126 2.28693C13.683 1.90262 12.649 1.90262 11.7194 2.28693Z" fill="#777777"/>
</svg>
