<svg width="18" height="18" viewBox="0 0 18 18" fill="none" xmlns="http://www.w3.org/2000/svg">
<path fill-rule="evenodd" clip-rule="evenodd" d="M13.166 0.667969C13.6263 0.667969 13.9993 1.04106 13.9993 1.5013V2.33464H14.8327C16.2134 2.33464 17.3327 3.45392 17.3327 4.83464V14.8346C17.3327 16.2153 16.2134 17.3346 14.8327 17.3346H3.16602C1.7853 17.3346 0.666016 16.2153 0.666016 14.8346V4.83464C0.666016 3.45392 1.7853 2.33464 3.16602 2.33464H3.99935V1.5013C3.99935 1.04106 4.37244 0.667969 4.83268 0.667969C5.29292 0.667969 5.66602 1.04106 5.66602 1.5013V2.33464H12.3327V1.5013C12.3327 1.04106 12.7058 0.667969 13.166 0.667969ZM2.33268 9.0013V14.8346C2.33268 15.2949 2.70578 15.668 3.16602 15.668H14.8327C15.2929 15.668 15.666 15.2949 15.666 14.8346V9.0013H2.33268ZM2.33268 7.33464H15.666V4.83464C15.666 4.3744 15.2929 4.0013 14.8327 4.0013H13.9993V4.83464C13.9993 5.29487 13.6263 5.66797 13.166 5.66797C12.7058 5.66797 12.3327 5.29487 12.3327 4.83464V4.0013H5.66602V4.83464C5.66602 5.29487 5.29292 5.66797 4.83268 5.66797C4.37244 5.66797 3.99935 5.29487 3.99935 4.83464V4.0013H3.16602C2.70578 4.0013 2.33268 4.3744 2.33268 4.83464V7.33464Z" fill="#777777"/>
</svg>
