<svg width="16" height="16" viewBox="0 0 16 16" fill="none" xmlns="http://www.w3.org/2000/svg">
<path fill-rule="evenodd" clip-rule="evenodd" d="M5.19989 13.6C5.86262 13.6 6.39987 14.1373 6.39987 14.8C6.39987 15.4627 5.86262 16 5.19989 16C4.53717 16 3.99992 15.4627 3.99992 14.8C3.99992 14.1373 4.53717 13.6 5.19989 13.6ZM12.3997 13.6C13.0625 13.6 13.5997 14.1373 13.5997 14.8C13.5997 15.4627 13.0625 16 12.3997 16C11.737 16 11.1998 15.4627 11.1998 14.8C11.1998 14.1373 11.737 13.6 12.3997 13.6ZM0.799984 0H2.39995C2.76443 0 3.07858 0.245472 3.17198 0.590191L3.19063 0.678354L3.57857 3.2H15.1997C15.6795 3.2 16.0436 3.61654 15.9958 4.08028L15.9806 4.17354L14.6591 10.1206C14.4257 11.171 13.5244 11.9315 12.4621 11.9956L12.3163 12H5.37256C4.2354 12 3.26151 11.2035 3.02606 10.1039L3.00052 9.96494L1.71363 1.6H0.799984C0.358165 1.6 0 1.24183 0 0.8C0 0.389731 0.308826 0.0515942 0.706689 0.00538216L0.799984 0H2.39995H0.799984ZM14.2024 4.8H3.82472L4.58188 9.72165C4.6373 10.0819 4.92768 10.3551 5.28259 10.395L5.37256 10.4H12.3163C12.66 10.4 12.9614 10.1812 13.0719 9.86276L13.0972 9.77354L14.2024 4.8Z" fill="#777777"/>
</svg>
