<svg width="16" height="18" viewBox="0 0 16 18" fill="none" xmlns="http://www.w3.org/2000/svg">
<path fill-rule="evenodd" clip-rule="evenodd" d="M8 0.666992C12.1421 0.666992 15.5 3.98843 15.5 8.08563C15.5 10.7969 13.2314 13.6635 8.79021 16.7863L8 17.3337L7.52316 17.0046C2.87535 13.7969 0.5 10.8599 0.5 8.08563C0.5 3.98843 3.85786 0.666992 8 0.666992ZM8 2.31558C4.77834 2.31558 2.16667 4.89892 2.16667 8.08563C2.16667 10.0877 4.0806 12.5307 8 15.3185C11.9194 12.5307 13.8333 10.0877 13.8333 8.08563C13.8333 4.89892 11.2217 2.31558 8 2.31558ZM8 4.00033C9.84095 4.00033 11.3333 5.49271 11.3333 7.33366C11.3333 9.17461 9.84095 10.667 8 10.667C6.15905 10.667 4.66667 9.17461 4.66667 7.33366C4.66667 5.49271 6.15905 4.00033 8 4.00033ZM8 5.66699C7.07952 5.66699 6.33333 6.41318 6.33333 7.33366C6.33333 8.25413 7.07952 9.00033 8 9.00033C8.92047 9.00033 9.66667 8.25413 9.66667 7.33366C9.66667 6.41318 8.92047 5.66699 8 5.66699Z" fill="#477EF4"/>
</svg>
