<svg width="18" height="14" viewBox="0 0 18 14" fill="none" xmlns="http://www.w3.org/2000/svg">
<path fill-rule="evenodd" clip-rule="evenodd" d="M14.8327 0.333008C16.2134 0.333008 17.3327 1.4523 17.3327 2.83301V11.1663C17.3327 12.5471 16.2134 13.6663 14.8327 13.6663H3.16602C1.7853 13.6663 0.666016 12.5471 0.666016 11.1663V2.83301C0.666016 1.4523 1.7853 0.333008 3.16602 0.333008H14.8327ZM15.666 3.10634L9.5481 8.46015C9.2601 8.71216 8.8419 8.73316 8.53219 8.52316L8.4506 8.46015L2.33268 3.10717V11.1663C2.33268 11.6266 2.70578 11.9997 3.16602 11.9997H14.8327C15.2929 11.9997 15.666 11.6266 15.666 11.1663V3.10634ZM14.3994 1.99967H3.59768L8.99935 6.7257L14.3994 1.99967Z" fill="#477EF4"/>
</svg>
