<svg width="18" height="18" viewBox="0 0 18 18" fill="none" xmlns="http://www.w3.org/2000/svg">
<path fill-rule="evenodd" clip-rule="evenodd" d="M6.9616 7.1937C7.19343 7.03915 7.33268 6.77895 7.33268 6.50033V3.16699C7.33268 1.78628 6.21339 0.666992 4.83268 0.666992H1.49935C1.03911 0.666992 0.666016 1.04009 0.666016 1.50033C0.666016 9.7846 8.21508 17.3337 16.4993 17.3337C16.9596 17.3337 17.3327 16.9606 17.3327 16.5003V13.167C17.3327 11.7863 16.2134 10.667 14.8327 10.667H11.4993C11.2207 10.667 10.9605 10.8062 10.806 11.0381L9.21819 13.4198C7.48884 12.3016 5.97372 10.8246 4.8083 9.12446L4.57992 8.78149L6.9616 7.1937ZM11.9453 12.3337H14.8327C15.2929 12.3337 15.666 12.7068 15.666 13.167V15.6381C14.0516 15.5264 12.4761 15.0946 11.0066 14.41L10.6694 14.2475L11.9453 12.3337ZM2.36158 2.33366H4.83268C5.29292 2.33366 5.66602 2.70675 5.66602 3.16699V6.05434L3.75217 7.33024C2.97337 5.7657 2.48188 4.07221 2.36158 2.33366Z" fill="#477EF4"/>
</svg>
