<svg width="13" height="13" viewBox="0 0 13 13" fill="none" xmlns="http://www.w3.org/2000/svg">
<path fill-rule="evenodd" clip-rule="evenodd" d="M6.5 4C5.68359 4 4.98905 3.47822 4.73167 2.74994L0.875 2.75C0.529822 2.75 0.25 2.47018 0.25 2.125C0.25 1.77982 0.529822 1.5 0.875 1.5L4.73189 1.49944C4.98945 0.771486 5.68382 0.25 6.5 0.25C7.31618 0.25 8.01055 0.771486 8.26811 1.49944L12.125 1.5C12.4702 1.5 12.75 1.77982 12.75 2.125C12.75 2.47018 12.4702 2.75 12.125 2.75L8.26833 2.74994C8.01095 3.47822 7.31641 4 6.5 4ZM6.5 2.75C6.84518 2.75 7.125 2.47018 7.125 2.125C7.125 1.77982 6.84518 1.5 6.5 1.5C6.15482 1.5 5.875 1.77982 5.875 2.125C5.875 2.47018 6.15482 2.75 6.5 2.75ZM2.125 8.375C1.08947 8.375 0.25 7.53553 0.25 6.5C0.25 5.46447 1.08947 4.625 2.125 4.625C2.94118 4.625 3.63555 5.14649 3.89311 5.87444L12.125 5.875C12.4702 5.875 12.75 6.15482 12.75 6.5C12.75 6.84518 12.4702 7.125 12.125 7.125L3.89333 7.12494C3.63595 7.85322 2.94141 8.375 2.125 8.375ZM2.125 7.125C2.47018 7.125 2.75 6.84518 2.75 6.5C2.75 6.15482 2.47018 5.875 2.125 5.875C1.77982 5.875 1.5 6.15482 1.5 6.5C1.5 6.84518 1.77982 7.125 2.125 7.125ZM10.875 12.75C10.0551 12.75 9.35816 12.2238 9.10342 11.4907C9.07001 11.4971 9.03535 11.5 9 11.5L0.875 11.5C0.529822 11.5 0.25 11.2202 0.25 10.875C0.25 10.5298 0.529822 10.25 0.875 10.25L9 10.25C9.03535 10.25 9.07001 10.2529 9.10375 10.2586C9.35816 9.52622 10.0551 9 10.875 9C11.9105 9 12.75 9.83947 12.75 10.875C12.75 11.9105 11.9105 12.75 10.875 12.75ZM10.875 11.5C11.2202 11.5 11.5 11.2202 11.5 10.875C11.5 10.5298 11.2202 10.25 10.875 10.25C10.5298 10.25 10.25 10.5298 10.25 10.875C10.25 11.2202 10.5298 11.5 10.875 11.5Z" fill="white"/>
</svg>
