<svg width="15" height="13" viewBox="0 0 15 13" fill="none" xmlns="http://www.w3.org/2000/svg">
<path d="M0 1.34835C0 0.679261 0.54303 0.13623 1.21212 0.13623H13.7879C14.457 0.13623 15 0.679261 15 1.34835C15 2.01744 14.457 2.56047 13.7879 2.56047H1.21212C0.54303 2.56047 0 2.01744 0 1.34835ZM13.7879 5.28775H1.21212C0.54303 5.28775 0 5.83078 0 6.49987C0 7.16896 0.54303 7.71199 1.21212 7.71199H13.7879C14.457 7.71199 15 7.16896 15 6.49987C15 5.83078 14.4576 5.28775 13.7879 5.28775ZM13.7879 10.4393H1.21212C0.54303 10.4393 0 10.9823 0 11.6514C0 12.3205 0.54303 12.8635 1.21212 12.8635H13.7879C14.457 12.8635 15 12.3205 15 11.6514C15 10.9823 14.4576 10.4393 13.7879 10.4393Z" fill="white"/>
</svg>
