<svg width="20" height="16" viewBox="0 0 20 16" fill="none" xmlns="http://www.w3.org/2000/svg">
<path fill-rule="evenodd" clip-rule="evenodd" d="M8.89176 14.9772L8.8155 15.0635C8.48506 15.394 7.96509 15.4194 7.60549 15.1398L7.51914 15.0635L1.10247 8.64688L1.06452 8.60658L1.01396 8.5444L0.948266 8.44242L0.899274 8.33909L0.866842 8.24253L0.840315 8.10695L0.833984 7.9987L0.836539 7.92973L0.852537 7.8147L0.879577 7.71257L0.919851 7.61074L0.967813 7.52138L1.03536 7.42537L1.10247 7.35052L7.51914 0.93385C7.87712 0.575869 8.45752 0.575869 8.8155 0.93385C9.14594 1.26429 9.17136 1.78426 8.89175 2.14386L8.8155 2.23021L3.96532 7.08203L18.2507 7.08203C18.7569 7.08203 19.1673 7.49244 19.1673 7.9987C19.1673 8.50496 18.7569 8.91536 18.2507 8.91536L3.96348 8.91536L8.8155 13.7672C9.14594 14.0976 9.17136 14.6176 8.89176 14.9772L8.8155 15.0635L8.89176 14.9772Z" fill="white"/>
</svg>
