<svg width="19" height="15" viewBox="0 0 19 15" fill="none" xmlns="http://www.w3.org/2000/svg">
<path fill-rule="evenodd" clip-rule="evenodd" d="M8.05777 14.3117L7.98151 14.398C7.65107 14.7285 7.13111 14.7539 6.77151 14.4743L6.68515 14.398L0.268485 7.98135L0.230537 7.94106L0.179973 7.87887L0.114281 7.77689L0.0652893 7.67356L0.0328573 7.577L0.00633099 7.44143L-6.411e-07 7.33317L0.00255486 7.2642L0.0185527 7.14917L0.0455927 7.04704L0.0858667 6.94522L0.133828 6.85585L0.201381 6.75984L0.268485 6.68499L6.68515 0.268322C7.04313 -0.0896586 7.62353 -0.0896586 7.98151 0.268322C8.31196 0.598766 8.33738 1.11873 8.05777 1.47833L7.98151 1.56469L3.13133 6.4165L17.4167 6.4165C17.9229 6.4165 18.3333 6.82691 18.3333 7.33317C18.3333 7.83943 17.9229 8.24984 17.4167 8.24984L3.1295 8.24984L7.98151 13.1017C8.31196 13.4321 8.33738 13.9521 8.05777 14.3117L7.98151 14.398L8.05777 14.3117Z" fill="#477EF4"/>
</svg>
