<svg width="22" height="22" viewBox="0 0 22 22" fill="none" xmlns="http://www.w3.org/2000/svg">
<path fill-rule="evenodd" clip-rule="evenodd" d="M12.1082 17.9772L12.1845 18.0635C12.5149 18.394 13.0349 18.4194 13.3945 18.1398L13.4809 18.0635L19.8975 11.6469L19.9355 11.6066L19.986 11.5444L20.0517 11.4424L20.1007 11.3391L20.1332 11.2425L20.1597 11.107L20.166 10.9987L20.1635 10.9297L20.1475 10.8147L20.1204 10.7126L20.0801 10.6107L20.0322 10.5214L19.9646 10.4254L19.8975 10.3505L13.4809 3.93385C13.1229 3.57587 12.5425 3.57587 12.1845 3.93385C11.8541 4.26429 11.8286 4.78426 12.1082 5.14386L12.1845 5.23021L17.0347 10.082L2.74935 10.082C2.24309 10.082 1.83268 10.4924 1.83268 10.9987C1.83268 11.505 2.24309 11.9154 2.74935 11.9154L17.0365 11.9154L12.1845 16.7672C11.8541 17.0976 11.8286 17.6176 12.1082 17.9772L12.1845 18.0635L12.1082 17.9772Z" fill="#477EF4"/>
</svg>
