<svg width="20" height="16" viewBox="0 0 20 16" fill="none" xmlns="http://www.w3.org/2000/svg">
<path fill-rule="evenodd" clip-rule="evenodd" d="M11.1082 14.9772L11.1845 15.0635C11.5149 15.394 12.0349 15.4194 12.3945 15.1398L12.4809 15.0635L18.8975 8.64688L18.9355 8.60658L18.986 8.5444L19.0517 8.44242L19.1007 8.33909L19.1332 8.24253L19.1597 8.10695L19.166 7.9987L19.1635 7.92973L19.1475 7.8147L19.1204 7.71257L19.0801 7.61075L19.0322 7.52138L18.9646 7.42537L18.8975 7.35052L12.4809 0.933849C12.1229 0.575869 11.5425 0.575869 11.1845 0.933849C10.8541 1.26429 10.8286 1.78426 11.1082 2.14386L11.1845 2.23021L16.0347 7.08203L1.74935 7.08203C1.24309 7.08203 0.832683 7.49244 0.832683 7.9987C0.832682 8.50496 1.24309 8.91536 1.74935 8.91536L16.0365 8.91536L11.1845 13.7672C10.8541 14.0976 10.8286 14.6176 11.1082 14.9772L11.1845 15.0635L11.1082 14.9772Z" fill="white"/>
</svg>
