<svg width="45" height="45" viewBox="0 0 45 45" fill="none" xmlns="http://www.w3.org/2000/svg">
<rect width="45" height="45" rx="22.5" fill="url(#paint0_radial_84_13468)"/>
<path d="M22.5 13.2831C25.4819 13.2831 25.8886 13.2831 27.1084 13.2831C28.1928 13.2831 28.7349 13.5542 29.1416 13.6898C29.6837 13.9608 30.0904 14.0964 30.497 14.503C30.9036 14.9096 31.1747 15.3163 31.3102 15.8584C31.4458 16.2651 31.5813 16.8072 31.7169 17.8916C31.7169 19.1114 31.7169 19.3825 31.7169 22.5C31.7169 25.6175 31.7169 25.8886 31.7169 27.1084C31.7169 28.1928 31.4458 28.7349 31.3102 29.1416C31.0392 29.6837 30.9036 30.0904 30.497 30.497C30.0904 30.9036 29.6837 31.1747 29.1416 31.3102C28.7349 31.4458 28.1928 31.5813 27.1084 31.7169C25.8886 31.7169 25.6175 31.7169 22.5 31.7169C19.3825 31.7169 19.1114 31.7169 17.8916 31.7169C16.8072 31.7169 16.2651 31.4458 15.8584 31.3102C15.3163 31.0392 14.9096 30.9036 14.503 30.497C14.0964 30.0904 13.8253 29.6837 13.6898 29.1416C13.5542 28.7349 13.4187 28.1928 13.2831 27.1084C13.2831 25.8886 13.2831 25.6175 13.2831 22.5C13.2831 19.3825 13.2831 19.1114 13.2831 17.8916C13.2831 16.8072 13.5542 16.2651 13.6898 15.8584C13.9608 15.3163 14.0964 14.9096 14.503 14.503C14.9096 14.0964 15.3163 13.8253 15.8584 13.6898C16.2651 13.5542 16.8072 13.4187 17.8916 13.2831C19.1114 13.2831 19.5181 13.2831 22.5 13.2831ZM22.5 11.25C19.3825 11.25 19.1114 11.25 17.8916 11.25C16.6717 11.25 15.8584 11.5211 15.1807 11.7922C14.503 12.0633 13.8253 12.4699 13.1476 13.1476C12.4699 13.8253 12.1988 14.3675 11.7922 15.1807C11.5211 15.8584 11.3855 16.6717 11.25 17.8916C11.25 19.1114 11.25 19.5181 11.25 22.5C11.25 25.6175 11.25 25.8886 11.25 27.1084C11.25 28.3283 11.5211 29.1416 11.7922 29.8193C12.0633 30.497 12.4699 31.1747 13.1476 31.8524C13.8253 32.5301 14.3675 32.8012 15.1807 33.2078C15.8584 33.4789 16.6717 33.6145 17.8916 33.75C19.1114 33.75 19.5181 33.75 22.5 33.75C25.4819 33.75 25.8886 33.75 27.1084 33.75C28.3283 33.75 29.1416 33.4789 29.8193 33.2078C30.497 32.9367 31.1747 32.5301 31.8524 31.8524C32.5301 31.1747 32.8012 30.6325 33.2078 29.8193C33.4789 29.1416 33.6145 28.3283 33.75 27.1084C33.75 25.8886 33.75 25.4819 33.75 22.5C33.75 19.5181 33.75 19.1114 33.75 17.8916C33.75 16.6717 33.4789 15.8584 33.2078 15.1807C32.9367 14.503 32.5301 13.8253 31.8524 13.1476C31.1747 12.4699 30.6325 12.1988 29.8193 11.7922C29.1416 11.5211 28.3283 11.3855 27.1084 11.25C25.8886 11.25 25.6175 11.25 22.5 11.25Z" fill="white"/>
<path d="M22.5 16.6717C19.247 16.6717 16.6717 19.247 16.6717 22.5C16.6717 25.753 19.247 28.3283 22.5 28.3283C25.753 28.3283 28.3283 25.753 28.3283 22.5C28.3283 19.247 25.753 16.6717 22.5 16.6717ZM22.5 26.2952C20.4669 26.2952 18.7048 24.6687 18.7048 22.5C18.7048 20.4669 20.3313 18.7048 22.5 18.7048C24.5331 18.7048 26.2952 20.3313 26.2952 22.5C26.2952 24.5331 24.5331 26.2952 22.5 26.2952Z" fill="white"/>
<path d="M28.4639 17.8916C29.2124 17.8916 29.8193 17.2847 29.8193 16.5361C29.8193 15.7876 29.2124 15.1807 28.4639 15.1807C27.7153 15.1807 27.1084 15.7876 27.1084 16.5361C27.1084 17.2847 27.7153 17.8916 28.4639 17.8916Z" fill="white"/>
<defs>
<radialGradient id="paint0_radial_84_13468" cx="0" cy="0" r="1" gradientUnits="userSpaceOnUse" gradientTransform="translate(45.9053 0.914063) scale(103.918)">
<stop stop-color="#F9ED32"/>
<stop offset="0.36" stop-color="#EE2A7B"/>
<stop offset="0.44" stop-color="#D22A8A"/>
<stop offset="0.6" stop-color="#8B2AB2"/>
<stop offset="0.83" stop-color="#1B2AF0"/>
<stop offset="0.88" stop-color="#002AFF"/>
</radialGradient>
</defs>
</svg>
