<svg width="22" height="20" viewBox="0 0 22 20" fill="none" xmlns="http://www.w3.org/2000/svg">
<path fill-rule="evenodd" clip-rule="evenodd" d="M3.14862 3.23557C2.36893 4.01893 1.83336 5.23652 1.83336 7.00003C1.83336 7.65635 2.24276 8.6796 3.10501 9.97491C3.93392 11.2202 5.06551 12.5486 6.24675 13.7759C7.42496 15.0001 8.6299 16.1 9.58942 16.889C10.0706 17.2844 10.4784 17.5923 10.783 17.7962C10.8678 17.8529 10.94 17.8986 11 17.9343C11.0599 17.8986 11.1322 17.8529 11.217 17.7962C11.5216 17.5923 11.9294 17.2844 12.4105 16.889C13.3701 16.1 14.575 15.0001 15.7532 13.7759C16.9344 12.5487 18.066 11.2202 18.8949 9.97491C19.7572 8.6796 20.1666 7.6563 20.1666 7.00003C20.1666 5.23652 19.6311 4.01898 18.8514 3.23557C18.0594 2.43977 16.9228 1.99998 15.5833 1.99998C14.1503 1.99998 12.638 3.11864 11.7633 4.55368C11.5934 4.83248 11.3069 5 11 5C10.6931 5 10.4065 4.83248 10.2366 4.55368C9.36195 3.11864 7.84965 1.99998 6.41658 1.99998C5.07715 1.99998 3.9407 2.43977 3.14862 3.23557ZM1.90666 1.76443C3.10519 0.560196 4.7187 0 6.41672 0C8.20319 0 9.85111 1.0542 11 2.39638C12.149 1.0542 13.7969 0 15.5834 0C17.2814 0 18.8949 0.560196 20.0934 1.76443C21.3044 2.98105 22 4.76348 22 6.99998C22 8.34368 21.2636 9.82039 20.3784 11.1501C19.46 12.5298 18.2426 13.9514 17.0176 15.2241C15.7896 16.5 14.5309 17.65 13.514 18.4861C13.0068 18.9031 12.5482 19.2515 12.176 19.5007C11.9913 19.6244 11.8125 19.7339 11.6507 19.816C11.533 19.8757 11.2794 20 11 20C10.7206 20 10.467 19.8757 10.3493 19.816C10.1874 19.7339 10.0087 19.6244 9.82399 19.5007C9.45184 19.2515 8.99321 18.9031 8.48606 18.4861C7.46904 17.65 6.21043 16.5 4.9824 15.2241C3.7574 13.9514 2.54003 12.5298 1.62155 11.1501C0.736447 9.82039 0 8.34368 0 6.99998C4.67466e-05 4.76348 0.69573 2.98105 1.90666 1.76443Z" fill="#777777"/>
</svg>
