<svg width="16" height="18" viewBox="0 0 16 18" fill="none" xmlns="http://www.w3.org/2000/svg">
<path fill-rule="evenodd" clip-rule="evenodd" d="M4.60117 2.85182L6.4345 1.01849C6.79248 0.660505 7.37288 0.660505 7.73086 1.01849C8.06131 1.34893 8.08673 1.86889 7.80712 2.22849L7.73086 2.31485L7.43941 2.60443C7.62499 2.5904 7.81173 2.58333 7.99935 2.58333C12.0494 2.58333 15.3327 5.86658 15.3327 9.91667C15.3327 13.9668 12.0494 17.25 7.99935 17.25C3.94926 17.25 0.666016 13.9668 0.666016 9.91667C0.666016 9.41041 1.07642 9 1.58268 9C2.08894 9 2.49935 9.41041 2.49935 9.91667C2.49935 12.9542 4.96178 15.4167 7.99935 15.4167C11.0369 15.4167 13.4993 12.9542 13.4993 9.91667C13.4993 6.8791 11.0369 4.41667 7.99935 4.41667C7.82787 4.41667 7.65754 4.42449 7.48872 4.44L7.73086 4.68515C8.08884 5.04313 8.08884 5.62353 7.73086 5.98151C7.40042 6.31196 6.88046 6.33738 6.52086 6.05777L6.4345 5.98151L4.60117 4.14818C4.27072 3.81774 4.2453 3.29778 4.52491 2.93818L4.60117 2.85182L6.4345 1.01849L4.60117 2.85182Z" fill="white"/>
</svg>
