<svg width="17" height="17" viewBox="0 0 17 17" fill="none" xmlns="http://www.w3.org/2000/svg">
<path fill-rule="evenodd" clip-rule="evenodd" d="M4.16667 11.6667H12.5C14.8012 11.6667 16.6667 13.5321 16.6667 15.8333C16.6667 16.2936 16.2936 16.6667 15.8333 16.6667C15.406 16.6667 15.0537 16.345 15.0056 15.9305L14.9958 15.6864C14.9225 14.4227 13.9106 13.4108 12.6469 13.3376L12.5 13.3333H4.16667C2.78595 13.3333 1.66667 14.4526 1.66667 15.8333C1.66667 16.2936 1.29357 16.6667 0.833333 16.6667C0.373096 16.6667 0 16.2936 0 15.8333C0 13.5927 1.76859 11.7652 3.98593 11.6705L4.16667 11.6667H12.5H4.16667ZM8.33333 0C11.0948 0 13.3333 2.23858 13.3333 5C13.3333 7.76142 11.0948 10 8.33333 10C5.57191 10 3.33333 7.76142 3.33333 5C3.33333 2.23858 5.57191 0 8.33333 0ZM8.33333 1.66667C6.49238 1.66667 5 3.15905 5 5C5 6.84095 6.49238 8.33333 8.33333 8.33333C10.1743 8.33333 11.6667 6.84095 11.6667 5C11.6667 3.15905 10.1743 1.66667 8.33333 1.66667Z" fill="white"/>
</svg>
