<svg width="18" height="18" viewBox="0 0 18 18" fill="none" xmlns="http://www.w3.org/2000/svg">
<path fill-rule="evenodd" clip-rule="evenodd" d="M5.6875 14.875C6.41237 14.875 7 15.4626 7 16.1875C7 16.9124 6.41237 17.5 5.6875 17.5C4.96263 17.5 4.375 16.9124 4.375 16.1875C4.375 15.4626 4.96263 14.875 5.6875 14.875ZM13.5625 14.875C14.2874 14.875 14.875 15.4626 14.875 16.1875C14.875 16.9124 14.2874 17.5 13.5625 17.5C12.8376 17.5 12.25 16.9124 12.25 16.1875C12.25 15.4626 12.8376 14.875 13.5625 14.875ZM0.875 0H2.625C3.02365 0 3.36727 0.268485 3.46942 0.645522L3.48983 0.74195L3.91414 3.5H16.625C17.1498 3.5 17.5481 3.95559 17.4957 4.4628L17.4792 4.56481L16.0337 11.0694C15.7784 12.2183 14.7927 13.05 13.6307 13.1202L13.4712 13.125H5.87636C4.63256 13.125 3.56735 12.2538 3.30982 11.0512L3.28188 10.8992L1.87432 1.75H0.875C0.391751 1.75 0 1.35825 0 0.875C0 0.426269 0.337785 0.0564312 0.772957 0.00588673L0.875 0H2.625H0.875ZM15.5342 5.25H4.18337L5.01153 10.6331C5.07215 11.0271 5.38976 11.3259 5.77795 11.3695L5.87636 11.375H13.4712C13.8471 11.375 14.1768 11.1357 14.2977 10.7874L14.3254 10.6898L15.5342 5.25Z" fill="white"/>
</svg>
