<svg width="18" height="15" viewBox="0 0 18 15" fill="none" xmlns="http://www.w3.org/2000/svg">
<path fill-rule="evenodd" clip-rule="evenodd" d="M2.4995 2.35448C1.88055 2.92452 1.45539 3.81054 1.45539 5.09382C1.45539 5.57142 1.7804 6.31602 2.46488 7.25859C3.1229 8.16477 4.02121 9.13143 4.95893 10.0245C5.89423 10.9153 6.85076 11.7158 7.61247 12.2898C7.99444 12.5776 8.31818 12.8016 8.55998 12.9501C8.6273 12.9913 8.68463 13.0246 8.73221 13.0506C8.77978 13.0246 8.83715 12.9913 8.90447 12.9501C9.14627 12.8016 9.47002 12.5776 9.85198 12.2898C10.6137 11.7158 11.5702 10.9153 12.5055 10.0245C13.4432 9.13147 14.3415 8.1648 14.9996 7.25859C15.6841 6.31602 16.0091 5.57138 16.0091 5.09382C16.0091 3.81054 15.584 2.92455 14.965 2.35448C14.3362 1.77539 13.434 1.45536 12.3707 1.45536C11.2331 1.45536 10.0326 2.26939 9.33817 3.31364C9.20331 3.51652 8.97587 3.63843 8.73221 3.63843C8.48858 3.63843 8.2611 3.51652 8.12625 3.31364C7.43189 2.26939 6.23137 1.45536 5.09374 1.45536C4.03045 1.45536 3.12828 1.77539 2.4995 2.35448ZM1.51358 1.28395C2.46503 0.407647 3.74589 0 5.09386 0C6.51203 0 7.82021 0.767125 8.73228 1.74381C9.64436 0.767125 10.9525 0 12.3707 0C13.7187 0 14.9995 0.407647 15.951 1.28395C16.9123 2.16927 17.4645 3.46631 17.4645 5.09378C17.4645 6.07158 16.8799 7.14615 16.1772 8.11374C15.4481 9.11774 14.4817 10.1522 13.5093 11.0783C12.5344 12.0068 11.5352 12.8436 10.728 13.452C10.3253 13.7555 9.96127 14.009 9.66581 14.1904C9.51919 14.2804 9.37728 14.3601 9.24877 14.4198C9.15533 14.4633 8.95405 14.5537 8.73224 14.5537C8.51044 14.5537 8.30916 14.4633 8.21572 14.4198C8.08721 14.3601 7.9453 14.2804 7.79868 14.1904C7.50326 14.009 7.13918 13.7555 6.73658 13.452C5.92922 12.8436 4.93009 12.0068 3.95523 11.0783C2.98278 10.1522 2.01638 9.11774 1.28725 8.11374C0.584621 7.14615 0 6.07158 0 5.09378C3.71094e-05 3.46631 0.552299 2.16927 1.51358 1.28395Z" fill="white"/>
</svg>
