<svg width="16" height="16" viewBox="0 0 16 16" fill="none" xmlns="http://www.w3.org/2000/svg">
<path fill-rule="evenodd" clip-rule="evenodd" d="M6.16603 6.37404C6.37467 6.23494 6.5 6.00076 6.5 5.75V2.75C6.5 1.50736 5.49264 0.5 4.25 0.5H1.25C0.835786 0.5 0.5 0.835786 0.5 1.25C0.5 8.70584 7.29416 15.5 14.75 15.5C15.1642 15.5 15.5 15.1642 15.5 14.75V11.75C15.5 10.5074 14.4926 9.5 13.25 9.5H10.25C9.99924 9.5 9.76506 9.62533 9.62596 9.83397L8.19695 11.9775C6.64054 10.9711 5.27694 9.64188 4.22806 8.11172L4.02251 7.80305L6.16603 6.37404ZM10.6514 11H13.25C13.6642 11 14 11.3358 14 11.75V13.974C12.5471 13.8735 11.1291 13.4849 9.80656 12.8687L9.50308 12.7225L10.6514 11ZM2.026 2H4.25C4.66421 2 5 2.33579 5 2.75V5.34861L3.27753 6.49692C2.57662 5.08884 2.13428 3.5647 2.026 2Z" fill="white"/>
</svg>
