<svg width="18" height="18" viewBox="0 0 18 18" fill="none" xmlns="http://www.w3.org/2000/svg">
<path fill-rule="evenodd" clip-rule="evenodd" d="M8.19039 0.898438C12.2165 0.898438 15.4804 4.16228 15.4804 8.18844C15.4804 9.90951 14.884 11.4913 13.8866 12.7384L16.8631 15.7157C17.1795 16.032 17.1795 16.5449 16.8631 16.8612C16.5712 17.1532 16.1117 17.1756 15.7939 16.9286L15.7176 16.8612L12.7403 13.8846C11.4932 14.882 9.91146 15.4784 8.19039 15.4784C4.16423 15.4784 0.900391 12.2146 0.900391 8.18844C0.900391 4.16228 4.16423 0.898438 8.19039 0.898438ZM8.19039 2.51844C5.05894 2.51844 2.52039 5.05698 2.52039 8.18844C2.52039 11.3199 5.05894 13.8584 8.19039 13.8584C11.3218 13.8584 13.8604 11.3199 13.8604 8.18844C13.8604 5.05698 11.3218 2.51844 8.19039 2.51844Z" fill="#777777"/>
</svg>
