<svg width="20" height="20" viewBox="0 0 20 20" fill="none" xmlns="http://www.w3.org/2000/svg">
<path fill-rule="evenodd" clip-rule="evenodd" d="M9.16406 1.66406C13.3062 1.66406 16.6641 5.02193 16.6641 9.16406C16.6641 10.9347 16.0505 12.562 15.0243 13.845L18.0867 16.9081C18.4121 17.2336 18.4121 17.7612 18.0867 18.0867C17.7862 18.3871 17.3136 18.4102 16.9866 18.156L16.9081 18.0867L13.845 15.0243C12.562 16.0505 10.9347 16.6641 9.16406 16.6641C5.02193 16.6641 1.66406 13.3062 1.66406 9.16406C1.66406 5.02193 5.02193 1.66406 9.16406 1.66406ZM9.16406 3.33073C5.9424 3.33073 3.33073 5.9424 3.33073 9.16406C3.33073 12.3857 5.9424 14.9974 9.16406 14.9974C12.3857 14.9974 14.9974 12.3857 14.9974 9.16406C14.9974 5.9424 12.3857 3.33073 9.16406 3.33073Z" fill="#333333"/>
</svg>
