<svg width="20" height="20" viewBox="0 0 20 20" fill="none" xmlns="http://www.w3.org/2000/svg">
<path fill-rule="evenodd" clip-rule="evenodd" d="M9.16602 1.66675C13.3082 1.66675 16.666 5.02461 16.666 9.16675C16.666 10.9374 16.0524 12.5647 15.0263 13.8477L18.0886 16.9108C18.414 17.2363 18.414 17.7639 18.0886 18.0893C17.7882 18.3897 17.3155 18.4128 16.9886 18.1587L16.9101 18.0893L13.847 15.027C12.564 16.0532 10.9367 16.6667 9.16602 16.6667C5.02388 16.6667 1.66602 13.3089 1.66602 9.16675C1.66602 5.02461 5.02388 1.66675 9.16602 1.66675ZM9.16602 3.33341C5.94435 3.33341 3.33268 5.94509 3.33268 9.16675C3.33268 12.3884 5.94435 15.0001 9.16602 15.0001C12.3877 15.0001 14.9993 12.3884 14.9993 9.16675C14.9993 5.94509 12.3877 3.33341 9.16602 3.33341Z" fill="#EAEAEA"/>
</svg>
