<svg width="147" height="142" viewBox="0 0 147 142" fill="none" xmlns="http://www.w3.org/2000/svg">
<g filter="url(#filter0_d_958_12214)">
<path d="M86.4058 41.3499L78.5886 60.5813C78.5886 60.5813 77.7759 61.8608 76.4344 60.9024L68.9837 52.1236L68.9468 52.0947C70.363 51.2228 81.3474 44.4503 81.8303 44.1403C82.5778 43.6602 82.2603 43.2225 81.4412 43.5345L65.9606 49.7996L61.0451 46.9097C61.0451 46.9097 60.2749 46.4384 60.3273 45.7576C60.3789 45.0755 61.4702 44.9184 61.4702 44.9184L84.7411 40.4708C84.7411 40.4708 86.6709 40.019 86.4058 41.3499Z" fill="url(#paint0_linear_958_12214)"/>
</g>
<defs>
<filter id="filter0_d_958_12214" x="0.324707" y="0.396484" width="146.106" height="140.862" filterUnits="userSpaceOnUse" color-interpolation-filters="sRGB">
<feFlood flood-opacity="0" result="BackgroundImageFix"/>
<feColorMatrix in="SourceAlpha" type="matrix" values="0 0 0 0 0 0 0 0 0 0 0 0 0 0 0 0 0 0 127 0" result="hardAlpha"/>
<feOffset dy="20"/>
<feGaussianBlur stdDeviation="30"/>
<feComposite in2="hardAlpha" operator="out"/>
<feColorMatrix type="matrix" values="0 0 0 0 0 0 0 0 0 0 0 0 0 0 0 0 0 0 0.1 0"/>
<feBlend mode="normal" in2="BackgroundImageFix" result="effect1_dropShadow_958_12214"/>
<feBlend mode="normal" in="SourceGraphic" in2="effect1_dropShadow_958_12214" result="shape"/>
</filter>
<linearGradient id="paint0_linear_958_12214" x1="84.4013" y1="51.4147" x2="60.1575" y2="46.5862" gradientUnits="userSpaceOnUse">
<stop stop-color="#477EF4"/>
<stop offset="1" stop-color="#004F85"/>
</linearGradient>
</defs>
</svg>
